<svg width="128" height="100" viewBox="0 0 128 100" fill="none" xmlns="http://www.w3.org/2000/svg">
<path d="M0 26.8063V73.1937C0 87.9984 12.0016 100 26.8063 100H101.194C115.998 100 128 87.9984 128 73.1937V40.4729C128 25.6682 115.998 13.6667 101.194 13.6667H73.9643C63.5428 13.6667 55.4977 5.23025 46.0719 0.784848C45.0222 0.289741 43.9284 0 42.8063 0H26.805C12.0003 0 0 12.0016 0 26.8063Z" fill="#907CE4"/>
<path d="M128 42.8071V71.1937C128 85.9984 115.998 98 101.194 98H26.8063C12.0016 98 0 85.9984 0 71.1937V49.6327C0 34.828 12.0011 22.8264 26.8058 22.8264H40.5445C51.9372 22.8264 50.3456 15.9996 58.1361 16C71.4043 16.0006 87.6879 16.0007 101.196 16.0005C116.001 16.0004 128 28.0021 128 42.8071Z" fill="url(#paint0_linear_35_41)"/>
<defs>
<linearGradient id="paint0_linear_35_41" x1="128" y1="16" x2="2.30185" y2="101.388" gradientUnits="userSpaceOnUse">
<stop offset="0.234375" stop-color="#C191FE"/>
<stop offset="1" stop-color="#907CE4"/>
</linearGradient>
</defs>
</svg>
